<?xml version="1.0" standalone="no"?>
<!DOCTYPE svg PUBLIC "-//W3C//DTD SVG 20010904//EN"
 "http://www.w3.org/TR/2001/REC-SVG-20010904/DTD/svg10.dtd">
<svg version="1.0" xmlns="http://www.w3.org/2000/svg"
 width="260.000000pt" height="184.000000pt" viewBox="0 0 260.000000 184.000000"
 preserveAspectRatio="xMidYMid meet">
<metadata>
Created by potrace 1.15, written by Peter Selinger 2001-2017
</metadata>
<g transform="translate(0.000000,184.000000) scale(0.100000,-0.100000)"
fill="#000000" stroke="none">
<path d="M1892 1527 l-202 -282 140 -3 140 -3 0 -489 0 -490 135 0 135 0 0
490 0 489 138 3 139 3 -203 280 c-111 154 -206 280 -211 282 -4 1 -99 -125
-211 -280z"/>
<path d="M774 1216 c-17 -8 -41 -30 -53 -50 -31 -50 -47 -56 -140 -56 -68 0
-84 3 -101 20 -29 29 -131 29 -161 -1 -11 -11 -36 -23 -55 -26 -18 -3 -39 -12
-46 -21 -10 -12 -13 -123 -13 -498 0 -451 1 -484 18 -501 17 -17 62 -18 802
-18 630 0 787 3 797 13 19 19 19 995 0 1014 -10 10 -70 14 -240 16 l-227 3
-52 57 -52 57 -223 2 c-168 2 -231 -1 -254 -11z m388 -333 c68 -30 139 -102
171 -171 32 -72 31 -198 -4 -272 -33 -70 -95 -132 -167 -167 -48 -23 -70 -28
-137 -28 -71 0 -88 4 -147 33 -129 63 -193 172 -186 317 4 95 30 158 93 220
100 100 244 126 377 68z"/>
<path d="M946 805 c-171 -61 -217 -284 -83 -402 150 -132 381 -40 395 158 6
82 -16 137 -78 192 -70 63 -152 82 -234 52z"/>
</g>
</svg>
